<?xml version="1.0" encoding="iso-8859-1"?>
<!-- Generator: Adobe Illustrator 19.0.0, SVG Export Plug-In . SVG Version: 6.00 Build 0)  -->
<svg version="1.1" id="Layer_1" xmlns="http://www.w3.org/2000/svg" xmlns:xlink="http://www.w3.org/1999/xlink" x="0px" y="0px"
	 viewBox="0 0 512 512" style="enable-background:new 0 0 512 512;" xml:space="preserve">
<g>
	<path style="fill:#2D527C;" d="M256.001,495.949c-64.093,0-124.349-24.958-169.669-70.279
		c-45.321-45.32-70.279-105.576-70.279-169.669S41.011,131.65,86.33,86.33s105.577-70.278,169.671-70.278
		S380.35,41.011,425.67,86.332c6.645,6.645,6.645,17.421,0,24.068c-6.647,6.645-17.419,6.644-24.068,0
		c-38.892-38.892-90.6-60.31-145.603-60.31S149.289,71.508,110.397,110.4s-60.31,90.6-60.31,145.603s21.418,106.711,60.31,145.603
		s90.6,60.31,145.603,60.31s106.711-21.418,145.603-60.31c40.863-40.863,62.764-97.427,60.089-155.192
		c-0.436-9.39,6.824-17.351,16.211-17.787c9.324-0.456,17.351,6.822,17.787,16.211c3.118,67.308-22.404,133.219-70.021,180.836
		C380.35,470.991,320.094,495.949,256.001,495.949z"/>
	<path style="fill:#2D527C;" d="M413.635,430.652c-4.357,0-8.71-1.663-12.033-4.984L86.33,110.398
		c-6.645-6.645-6.645-17.421,0-24.068c6.647-6.644,17.419-6.644,24.068,0L425.67,401.602c6.645,6.645,6.645,17.421,0,24.068
		C422.346,428.992,417.991,430.652,413.635,430.652z"/>
	<path style="fill:#2D527C;" d="M98.365,430.652c-4.357,0-8.71-1.663-12.033-4.984c-6.645-6.645-6.645-17.421,0-24.068
		l175.685-175.685c6.647-6.644,17.419-6.644,24.068,0c6.645,6.645,6.645,17.421,0,24.068L110.398,425.67
		C107.075,428.992,102.72,430.652,98.365,430.652z"/>
</g>
<path style="fill:#CEE8FA;" d="M163.439,115.497l-47.942,47.942c-11.56,11.56-30.305,11.56-41.865,0L25.69,115.497
	c-11.56-11.56-11.56-30.305,0-41.865L73.632,25.69c11.56-11.56,30.305-11.56,41.865,0l47.942,47.942
	C175,85.192,175,103.937,163.439,115.497z"/>
<path style="fill:#2D527C;" d="M94.563,189.128c-12.452,0-24.16-4.85-32.966-13.655L13.655,127.53C4.85,118.725,0,107.017,0,94.563
	s4.85-24.16,13.655-32.966l47.942-47.942C70.404,4.85,82.112,0,94.563,0s24.162,4.85,32.966,13.655l47.942,47.942
	c8.807,8.807,13.655,20.515,13.655,32.966s-4.85,24.16-13.655,32.966l-47.942,47.942
	C118.725,184.278,107.017,189.128,94.563,189.128z M94.563,34.035c-3.363,0-6.523,1.31-8.899,3.688L37.723,85.665
	c-4.908,4.908-4.908,12.891,0,17.799l47.942,47.942c2.376,2.377,5.538,3.688,8.899,3.688c3.361,0,6.523-1.31,8.898-3.688
	l47.944-47.942c4.908-4.908,4.908-12.891,0-17.799l-47.942-47.942C101.086,35.346,97.926,34.035,94.563,34.035z"/>
<path style="fill:#CEE8FA;" d="M304.133,304.133L304.133,304.133c-26.583,26.583-69.684,26.583-96.267,0l0,0
	c-26.583-26.583-26.583-69.684,0-96.265l0,0c26.583-26.583,69.684-26.583,96.265,0l0,0
	C330.717,234.45,330.717,277.55,304.133,304.133z"/>
<path style="fill:#2D527C;" d="M256.001,341.089c-22.727,0-44.094-8.851-60.166-24.922c-33.176-33.176-33.176-87.157,0-120.333
	c16.071-16.07,37.439-24.922,60.166-24.922s44.094,8.851,60.166,24.922c33.176,33.176,33.176,87.157,0,120.333
	C300.095,332.236,278.728,341.089,256.001,341.089z M256.001,204.948c-13.636,0-26.457,5.309-36.099,14.953
	c-19.905,19.904-19.905,52.293,0,72.199c9.642,9.644,22.463,14.953,36.099,14.953c13.636,0,26.457-5.309,36.099-14.953
	c19.905-19.904,19.905-52.293,0-72.199C282.456,210.258,269.635,204.948,256.001,204.948z"/>
<path style="fill:#CEE8FA;" d="M486.312,438.368L438.37,486.31c-11.56,11.56-30.305,11.56-41.865,0l-47.942-47.942
	c-11.56-11.56-11.56-30.305,0-41.865l47.942-47.942c11.56-11.56,30.305-11.56,41.865,0l47.942,47.942
	C497.872,408.065,497.872,426.808,486.312,438.368z"/>
<path style="fill:#2D527C;" d="M417.437,512c-12.452,0-24.16-4.85-32.966-13.655l-47.942-47.942
	c-8.807-8.807-13.655-20.515-13.655-32.966s4.85-24.16,13.655-32.966l47.942-47.942c8.807-8.807,20.515-13.655,32.966-13.655
	c12.452,0,24.16,4.85,32.966,13.655l47.942,47.942c8.807,8.807,13.655,20.515,13.655,32.966s-4.85,24.16-13.655,32.966
	l-47.942,47.942C441.596,507.152,429.888,512,417.437,512z M417.437,356.908c-3.363,0-6.523,1.31-8.899,3.688l-47.942,47.942
	c-4.908,4.908-4.908,12.891,0,17.799l47.942,47.942c2.376,2.377,5.538,3.688,8.899,3.688c3.361,0,6.523-1.31,8.898-3.688
	l47.942-47.942c4.908-4.908,4.908-12.891,0-17.799l-47.942-47.942C423.959,358.217,420.798,356.908,417.437,356.908z"/>
<path style="fill:#CEE8FA;" d="M396.503,163.439l-47.942-47.942c-11.56-11.56-11.56-30.305,0-41.865l47.942-47.942
	c11.56-11.56,30.305-11.56,41.865,0l47.942,47.942c11.56,11.56,11.56,30.305,0,41.865l-47.942,47.942
	C426.808,175,408.065,175,396.503,163.439z"/>
<path style="fill:#2D527C;" d="M417.437,189.128c-12.452,0-24.16-4.85-32.966-13.655l-47.942-47.944
	c-8.807-8.807-13.655-20.515-13.655-32.966s4.85-24.16,13.655-32.966l47.942-47.942C393.277,4.85,404.983,0,417.437,0
	c12.453,0,24.16,4.85,32.966,13.655l47.942,47.942C507.152,70.404,512,82.112,512,94.563s-4.85,24.16-13.655,32.966l-47.942,47.942
	C441.596,184.278,429.888,189.128,417.437,189.128z M417.437,34.035c-3.363,0-6.523,1.31-8.899,3.688l-47.942,47.942
	c-4.908,4.908-4.908,12.891,0,17.799l47.942,47.942c2.376,2.377,5.538,3.688,8.899,3.688c3.361,0,6.523-1.31,8.898-3.688
	l47.942-47.942c4.908-4.908,4.908-12.891,0-17.799l-47.942-47.942C423.959,35.346,420.798,34.035,417.437,34.035z"/>
<path style="fill:#CEE8FA;" d="M73.632,486.312L25.69,438.37c-11.56-11.56-11.56-30.305,0-41.865l47.942-47.942
	c11.56-11.56,30.305-11.56,41.865,0l47.942,47.942c11.56,11.56,11.56,30.305,0,41.865l-47.942,47.942
	C103.937,497.872,85.192,497.872,73.632,486.312z"/>
<path style="fill:#2D527C;" d="M94.563,512c-12.452,0-24.16-4.85-32.966-13.655l-47.942-47.942C4.85,441.596,0,429.888,0,417.437
	c0-12.452,4.85-24.16,13.655-32.966l47.942-47.942c8.807-8.807,20.515-13.655,32.966-13.655s24.16,4.85,32.966,13.655l47.942,47.942
	c8.807,8.807,13.655,20.515,13.655,32.966c0,12.452-4.85,24.16-13.655,32.966l-47.942,47.942
	C118.725,507.152,107.017,512,94.563,512z M94.563,356.908c-3.363,0-6.523,1.31-8.899,3.688l-47.942,47.942
	c-4.908,4.908-4.908,12.891,0,17.799l47.942,47.942c2.376,2.377,5.538,3.688,8.899,3.688c3.361,0,6.523-1.31,8.898-3.688
	l47.942-47.942c4.908-4.908,4.908-12.891,0-17.799l-47.942-47.942C101.086,358.217,97.926,356.908,94.563,356.908z"/>
<g>
</g>
<g>
</g>
<g>
</g>
<g>
</g>
<g>
</g>
<g>
</g>
<g>
</g>
<g>
</g>
<g>
</g>
<g>
</g>
<g>
</g>
<g>
</g>
<g>
</g>
<g>
</g>
<g>
</g>
</svg>
