<?xml version="1.0" encoding="UTF-8"?>
<!DOCTYPE svg PUBLIC "-//W3C//DTD SVG 1.1//EN" "http://www.w3.org/Graphics/SVG/1.1/DTD/svg11.dtd">
<svg xmlns="http://www.w3.org/2000/svg" version="1.1" width="640px" height="660px" style="shape-rendering:geometricPrecision; text-rendering:geometricPrecision; image-rendering:optimizeQuality; fill-rule:evenodd; clip-rule:evenodd" xmlns:xlink="http://www.w3.org/1999/xlink">
<g><path style="opacity:0.969" fill="#fefdfd" d="M 438.5,-0.5 C 453.5,-0.5 468.5,-0.5 483.5,-0.5C 542.069,5.03012 589.235,31.0301 625,77.5C 634.078,95.3864 638.245,114.386 637.5,134.5C 635.589,174.89 628.089,214.224 615,252.5C 600.63,296.069 581.797,337.569 558.5,377C 562.167,377.667 565.833,377.667 569.5,377C 581.793,374.728 594.126,372.895 606.5,371.5C 622.313,372.551 633.313,380.217 639.5,394.5C 639.5,401.167 639.5,407.833 639.5,414.5C 632.603,430.238 621.603,442.404 606.5,451C 575.925,469.016 542.925,476.516 507.5,473.5C 506.591,503.405 503.425,533.072 498,562.5C 493.124,589.091 481.29,611.924 462.5,631C 451.127,640.856 438.127,647.856 423.5,652C 412.835,655.095 402.168,657.595 391.5,659.5C 384.167,659.5 376.833,659.5 369.5,659.5C 343.174,655.23 324.34,640.896 313,616.5C 306.103,600.808 301.436,584.474 299,567.5C 296.3,542.573 294.8,517.573 294.5,492.5C 264.48,503.217 234.48,503.05 204.5,492C 196.216,488.383 189.05,483.216 183,476.5C 160.822,494.263 137.322,496.097 112.5,482C 95.3867,469.29 81.8867,453.457 72,434.5C 52.3317,395.498 36.9983,354.832 26,312.5C 13.6085,268.378 4.7752,223.711 -0.5,178.5C -0.5,170.833 -0.5,163.167 -0.5,155.5C 0.481154,124.251 8.64782,94.9173 24,67.5C 45.1728,35.9766 74.6728,17.1432 112.5,11C 160.374,4.81686 207.04,9.98352 252.5,26.5C 268.847,16.6617 286.513,10.495 305.5,8C 331.12,5.48658 356.62,6.31992 382,10.5C 400.687,5.32843 419.521,1.66176 438.5,-0.5 Z"/></g>
<g><path style="opacity:1" fill="#040203" d="M 438.5,17.5 C 482.754,13.149 524.087,21.9823 562.5,44C 581.577,55.7428 597.41,70.9095 610,89.5C 613.892,97.7338 616.225,106.4 617,115.5C 618.66,151.217 614.327,186.217 604,220.5C 586.647,281.029 560.814,337.529 526.5,390C 528.956,391.711 531.623,393.044 534.5,394C 545.79,395.522 557.123,395.856 568.5,395C 580.373,393.425 592.206,391.592 604,389.5C 621.37,392.618 625.37,401.618 616,416.5C 592.337,440.574 563.503,453.074 529.5,454C 517.842,455.114 506.342,454.281 495,451.5C 494.5,451.833 494,452.167 493.5,452.5C 488.997,489.19 484.164,525.857 479,562.5C 476.704,585.927 466.87,605.427 449.5,621C 420.847,640.25 389.847,645.583 356.5,637C 343.828,631.328 333.995,622.495 327,610.5C 317.064,592.499 312.064,573.166 312,552.5C 310.206,521.193 309.206,489.86 309,458.5C 292.297,473.515 272.63,480.849 250,480.5C 232.63,480.783 216.464,476.616 201.5,468C 187.961,453.346 190.628,442.346 209.5,435C 221.124,431.844 232.791,428.844 244.5,426C 254.256,421.077 261.923,413.911 267.5,404.5C 260.837,403.047 254.17,401.547 247.5,400C 241.787,397.765 236.12,395.765 230.5,394C 211.421,414.408 193.088,435.408 175.5,457C 156.319,475.085 136.319,476.085 115.5,460C 103.013,447.855 92.8467,434.022 85,418.5C 64.77,375.479 49.1033,330.812 38,284.5C 29.623,252.572 23.2897,220.239 19,187.5C 15.942,157.076 19.2753,127.409 29,98.5C 42.7419,63.758 67.5753,41.258 103.5,31C 137.867,23.6224 172.2,23.9557 206.5,32C 222.762,35.5656 238.762,40.0656 254.5,45.5C 283.702,27.7581 315.368,20.9247 349.5,25C 359.766,25.8476 369.933,27.3476 380,29.5C 399.304,23.8733 418.804,19.8733 438.5,17.5 Z"/></g>
<g><path style="opacity:1" fill="#f8795d" d="M 445.5,35.5 C 483.188,33.1651 518.521,40.9985 551.5,59C 566.508,68.6684 579.674,80.5017 591,94.5C 597.07,105.671 599.903,117.671 599.5,130.5C 596.965,175.672 587.465,219.339 571,261.5C 556.104,300.291 537.771,337.291 516,372.5C 514.764,371.601 513.93,370.434 513.5,369C 525.265,346.581 529.765,322.748 527,297.5C 525.06,282.037 523.56,266.537 522.5,251C 523.395,234.068 525.228,217.235 528,200.5C 530.482,184.075 528.149,168.408 521,153.5C 499.123,102.624 463.289,65.1236 413.5,41C 424.209,38.6048 434.875,36.7715 445.5,35.5 Z"/></g>
<g><path style="opacity:1" fill="#f8795d" d="M 318.5,42.5 C 396.013,40.6603 454.18,72.9936 493,139.5C 498.38,149.592 503.213,159.926 507.5,170.5C 495.299,170.088 482.966,170.588 470.5,172C 443.829,178.01 430.163,194.677 429.5,222C 431.209,245.999 437.376,268.833 448,290.5C 460.76,315.689 473.76,340.689 487,365.5C 492.308,372.975 497.808,380.308 503.5,387.5C 490.446,391.72 481.946,400.387 478,413.5C 473.297,467.789 466.297,521.789 457,575.5C 452.654,593.844 441.82,606.677 424.5,614C 367.788,636.907 336.622,618.074 331,557.5C 330.407,546.162 329.74,534.829 329,523.5C 328.667,488.833 328.333,454.167 328,419.5C 323.147,398.473 309.981,388.139 288.5,388.5C 290.023,382.428 291.857,376.428 294,370.5C 301.22,354.059 307.887,337.392 314,320.5C 323.445,281.18 322.112,242.18 310,203.5C 300.598,182.473 284.265,172.473 261,173.5C 254.411,173.626 247.911,174.459 241.5,176C 229.093,179.633 217.093,184.133 205.5,189.5C 207.681,151.122 219.514,116.122 241,84.5C 261.069,59.8817 286.903,45.8817 318.5,42.5 Z"/></g>
<g><path style="opacity:1" fill="#f8795d" d="M 129.5,44.5 C 166.5,42.8337 202.5,48.0004 237.5,60C 214.281,85.9363 199.115,116.103 192,150.5C 185.498,182.046 183.665,213.88 186.5,246C 185.47,272.177 184.637,298.344 184,324.5C 187.894,347.526 198.394,366.859 215.5,382.5C 195.981,404.185 176.648,426.018 157.5,448C 146.45,454.692 136.116,453.692 126.5,445C 117.457,435.959 109.957,425.792 104,414.5C 84.988,376.134 70.3213,336.134 60,294.5C 49.8962,256.981 42.2295,218.981 37,180.5C 34.6242,151.424 38.9575,123.424 50,96.5C 62.3968,72.0353 81.8968,56.202 108.5,49C 115.605,47.3515 122.605,45.8515 129.5,44.5 Z"/></g>
<g><path style="opacity:1" fill="#f7795d" d="M 476.5,189.5 C 487.538,189.235 498.538,189.568 509.5,190.5C 507.337,209.646 505.337,228.813 503.5,248C 504.629,265.531 506.129,283.031 508,300.5C 509.96,318.114 507.627,335.114 501,351.5C 488.76,328.689 476.76,305.689 465,282.5C 458.607,268.322 453.607,253.655 450,238.5C 448.595,230.208 448.262,221.875 449,213.5C 450.059,205.21 454.226,199.044 461.5,195C 466.462,192.726 471.462,190.892 476.5,189.5 Z"/></g>
<g><path style="opacity:1" fill="#f8795d" d="M 253.5,192.5 C 260.906,192.152 268.239,192.652 275.5,194C 285.136,197.639 291.303,204.472 294,214.5C 301.978,244.912 303.312,275.579 298,306.5C 296.405,313.286 294.405,319.953 292,326.5C 282.946,345.164 275.78,364.498 270.5,384.5C 238.498,382.074 216.998,365.74 206,335.5C 204.842,331.203 203.842,326.869 203,322.5C 205.04,285.818 205.874,249.152 205.5,212.5C 220.189,202.498 236.189,195.831 253.5,192.5 Z"/></g>
<g><path style="opacity:1" fill="#080305" d="M 475.5,197.5 C 480.267,197.191 484.934,197.691 489.5,199C 491.357,200.182 492.357,201.849 492.5,204C 489.774,211.713 484.274,216.213 476,217.5C 468.785,216.825 463.951,213.158 461.5,206.5C 461.876,204.617 462.876,203.117 464.5,202C 468.157,200.178 471.824,198.678 475.5,197.5 Z"/></g>
<g><path style="opacity:1" fill="#060204" d="M 258.5,202.5 C 265.66,202.089 272.66,202.922 279.5,205C 287.98,209.392 288.646,214.725 281.5,221C 267.545,228.02 257.545,224.353 251.5,210C 252.699,206.305 255.032,203.805 258.5,202.5 Z"/></g>
<g><path style="opacity:1" fill="#f6795d" d="M 512.5,404.5 C 517.007,406.797 521.674,408.964 526.5,411C 539.628,414.339 552.962,415.339 566.5,414C 576.636,412.984 586.636,411.65 596.5,410C 580.137,424.017 561.137,432.017 539.5,434C 528.863,435.362 518.196,435.696 507.5,435C 503.686,434.766 500.019,433.932 496.5,432.5C 492.623,417.561 497.956,408.228 512.5,404.5 Z"/></g>
<g><path style="opacity:1" fill="#f6795d" d="M 290.5,407.5 C 302.483,407.426 308.816,413.426 309.5,425.5C 309.657,429.852 308.157,433.518 305,436.5C 290.383,453.807 271.716,462.14 249,461.5C 241.387,461.676 233.887,460.843 226.5,459C 222.111,457.971 218.111,456.138 214.5,453.5C 224.735,450.457 235.069,447.623 245.5,445C 255.449,442.612 263.949,437.779 271,430.5C 277.054,422.351 283.554,414.684 290.5,407.5 Z"/></g>
</svg>
